<svg width="22" height="22" viewBox="0 0 32 33" fill="none" xmlns="http://www.w3.org/2000/svg">
<path fill-rule="evenodd" clip-rule="evenodd" d="M26 0.592712C29.3137 0.592712 32 3.279 32 6.59271V26.5927C32 29.9064 29.3137 32.5927 26 32.5927H6C2.68629 32.5927 0 29.9064 0 26.5927V6.59271C0 3.279 2.68629 0.592712 6 0.592712H26ZM8 12.5927C10.2091 12.5927 12 10.8019 12 8.59271C12 6.38357 10.2091 4.59271 8 4.59271C5.79086 4.59271 4 6.38357 4 8.59271C4 10.8019 5.79086 12.5927 8 12.5927ZM28 8.59271C28 10.8019 26.2091 12.5927 24 12.5927C21.7909 12.5927 20 10.8019 20 8.59271C20 6.38357 21.7909 4.59271 24 4.59271C26.2091 4.59271 28 6.38357 28 8.59271ZM8 28.5927C10.2091 28.5927 12 26.8019 12 24.5927C12 22.3836 10.2091 20.5927 8 20.5927C5.79086 20.5927 4 22.3836 4 24.5927C4 26.8019 5.79086 28.5927 8 28.5927ZM20 16.5927C20 18.8019 18.2091 20.5927 16 20.5927C13.7909 20.5927 12 18.8019 12 16.5927C12 14.3836 13.7909 12.5927 16 12.5927C18.2091 12.5927 20 14.3836 20 16.5927ZM24 28.5927C26.2091 28.5927 28 26.8019 28 24.5927C28 22.3836 26.2091 20.5927 24 20.5927C21.7909 20.5927 20 22.3836 20 24.5927C20 26.8019 21.7909 28.5927 24 28.5927Z" fill="white"/>
</svg>
